# xmcd
#
# Track frame offsets: 
#        150
#        16360
#        28951
#        40454
#        55747
#        71869
#
# Disc length: 1182 seconds
#
# Revision: 0
# Processed by: cddbd v1.5.2PL0 Copyright (c) Steve Scherf et al.
# Submitted via: ExactAudioCopyFreeDBPlugin 1.0
#
DISCID=53049c06
DTITLE=The Argues - Something New
DYEAR=2016
DGENRE=Country
TTITLE0=Run Till You Drop 
TTITLE1=The Best Is Yet To Be 
TTITLE2=Something New
TTITLE3=Living Our Lives 
TTITLE4=Get It Done 
TTITLE5=The Buoy 
EXTD=
EXTT0=
EXTT1=
EXTT2=
EXTT3=
EXTT4=
EXTT5=
PLAYORDER=
